<svg id="svg" version="1.1" xmlns="http://www.w3.org/2000/svg" xmlns:xlink="http://www.w3.org/1999/xlink" width="400" height="400" viewBox="0, 0, 400,400"><g id="svgg"><path id="path0" d="M151.600 60.414 C 151.050 60.836,150.458 61.186,150.285 61.191 C 149.241 61.221,137.287 69.938,133.859 73.170 C 123.190 83.228,117.464 90.810,110.968 103.479 C 109.776 105.806,108.800 107.866,108.800 108.059 C 108.800 108.251,108.453 109.172,108.028 110.104 C 107.603 111.037,106.860 113.060,106.375 114.600 C 105.891 116.140,105.359 117.760,105.193 118.200 C 104.828 119.166,104.201 121.526,103.625 124.100 C 103.391 125.145,103.023 126.765,102.808 127.700 C 101.935 131.480,101.200 140.227,101.200 146.828 C 101.200 157.687,102.376 165.941,105.271 175.400 C 106.465 179.299,106.715 180.023,107.654 182.300 C 108.329 183.938,108.871 185.303,109.203 186.200 C 109.632 187.359,112.455 193.006,114.003 195.800 C 116.008 199.421,121.962 208.107,123.187 209.200 C 123.310 209.310,124.219 210.389,125.205 211.599 C 128.258 215.340,134.739 221.393,141.254 226.592 C 142.283 227.412,147.944 231.200,148.142 231.200 C 148.240 231.200,149.463 231.895,150.860 232.744 L 153.400 234.289 153.600 314.444 L 153.800 394.600 154.996 394.688 C 155.654 394.737,156.256 394.967,156.333 395.200 C 156.417 395.452,157.005 395.523,157.788 395.376 C 158.687 395.207,159.275 395.314,159.648 395.714 C 160.017 396.108,160.679 396.233,161.690 396.097 C 162.828 395.945,163.245 396.052,163.435 396.547 C 163.639 397.079,164.065 397.152,165.782 396.951 C 167.380 396.763,168.012 396.848,168.439 397.310 C 168.854 397.759,169.526 397.862,171.023 397.710 C 172.546 397.555,173.204 397.661,173.683 398.141 C 174.192 398.649,174.844 398.728,176.918 398.535 C 179.608 398.284,181.783 398.580,181.431 399.151 C 181.206 399.514,185.179 399.591,207.385 399.651 C 218.227 399.680,222.612 399.564,222.718 399.246 C 222.920 398.640,224.277 398.680,224.567 399.300 C 224.753 399.700,224.847 399.700,225.033 399.300 C 225.162 399.025,225.971 398.800,226.833 398.800 C 227.695 398.800,228.400 398.620,228.400 398.400 C 228.400 398.171,229.600 398.000,231.200 398.000 C 232.800 398.000,234.000 397.829,234.000 397.600 C 234.000 397.380,234.900 397.200,236.000 397.200 C 237.100 397.200,238.000 397.020,238.000 396.800 C 238.000 396.580,238.810 396.400,239.800 396.400 C 240.790 396.400,241.600 396.220,241.600 396.000 C 241.600 395.780,242.500 395.600,243.600 395.600 C 244.700 395.600,245.600 395.420,245.600 395.200 C 245.600 394.679,246.693 394.679,246.867 395.200 C 246.940 395.420,246.954 359.396,246.897 315.146 C 246.783 225.981,246.544 234.496,249.200 233.130 C 260.298 227.423,274.227 214.488,282.316 202.377 C 286.564 196.017,292.000 185.818,292.000 184.209 C 292.000 183.900,292.146 183.557,292.324 183.447 C 292.647 183.247,295.548 174.536,296.369 171.300 C 297.402 167.226,297.566 166.452,297.951 163.800 C 298.175 162.260,298.547 159.809,298.779 158.354 C 299.010 156.899,299.200 151.699,299.200 146.800 C 299.200 141.901,299.010 136.701,298.779 135.246 C 298.547 133.791,298.175 131.340,297.951 129.800 C 297.727 128.260,297.362 126.280,297.139 125.400 C 296.916 124.520,296.555 123.080,296.336 122.200 C 295.577 119.150,292.647 110.353,292.324 110.153 C 292.146 110.043,292.000 109.672,292.000 109.329 C 292.000 108.181,285.568 95.512,284.241 94.045 C 283.888 93.656,283.600 93.224,283.600 93.086 C 283.600 90.672,269.207 74.748,262.000 69.188 C 261.010 68.425,260.110 67.699,260.000 67.575 C 259.207 66.684,248.004 59.600,247.388 59.600 C 247.285 59.600,247.200 79.085,247.199 102.900 C 247.199 126.715,247.080 150.362,246.937 155.449 L 246.675 164.699 200.336 164.997 C 163.728 165.233,153.871 165.191,153.400 164.800 C 152.877 164.366,152.790 157.796,152.701 111.975 L 152.600 59.646 151.600 60.414 " stroke="none" fill="#14448c" fill-rule="evenodd"></path><path id="path1" d="M153.503 111.862 L 153.606 164.500 199.903 164.206 C 225.366 164.044,246.290 163.827,246.400 163.723 C 246.510 163.619,246.609 140.193,246.620 111.667 L 246.640 59.800 246.420 105.902 L 246.200 152.005 199.800 105.614 L 153.400 59.224 153.503 111.862 M256.000 64.124 C 256.000 64.217,256.765 64.798,257.700 65.415 C 258.635 66.032,259.189 66.280,258.931 65.968 C 258.434 65.367,256.000 63.836,256.000 64.124 M142.200 65.435 L 141.000 66.466 142.300 65.606 C 143.015 65.133,143.600 64.668,143.600 64.573 C 143.600 64.273,143.431 64.378,142.200 65.435 M139.200 67.649 C 137.806 68.871,137.805 68.872,139.088 68.019 C 139.796 67.548,140.482 66.991,140.612 66.781 C 140.997 66.157,140.677 66.354,139.200 67.649 M135.854 70.233 C 135.223 70.787,134.787 71.320,134.883 71.416 C 134.979 71.513,135.574 71.054,136.204 70.396 C 137.596 68.943,137.416 68.859,135.854 70.233 M132.706 73.011 C 131.884 73.775,131.354 74.400,131.527 74.400 C 131.701 74.400,132.454 73.770,133.200 73.000 C 134.941 71.203,134.643 71.210,132.706 73.011 M268.800 74.600 C 269.995 75.810,271.063 76.800,271.173 76.800 C 271.283 76.800,270.395 75.810,269.200 74.600 C 268.005 73.390,266.937 72.400,266.827 72.400 C 266.717 72.400,267.605 73.390,268.800 74.600 M127.721 77.907 C 126.138 79.595,124.923 81.057,125.021 81.155 C 125.120 81.253,125.245 81.253,125.300 81.155 C 125.355 81.057,126.745 79.587,128.390 77.889 C 130.034 76.190,131.204 74.808,130.990 74.819 C 130.775 74.829,129.305 76.218,127.721 77.907 M274.800 80.664 C 274.800 80.882,275.295 81.497,275.900 82.030 L 277.000 83.000 276.000 81.800 C 275.450 81.140,274.955 80.525,274.900 80.433 C 274.845 80.342,274.800 80.445,274.800 80.664 M123.226 82.922 L 122.251 84.200 123.526 83.025 C 124.851 81.803,125.003 81.585,124.500 81.622 C 124.335 81.634,123.762 82.219,123.226 82.922 M278.828 85.395 C 279.143 85.832,279.734 86.552,280.142 86.995 C 283.190 90.302,291.600 105.019,291.600 107.045 C 291.600 107.350,291.780 107.600,292.000 107.600 C 292.220 107.600,292.400 107.949,292.400 108.376 C 292.400 108.803,292.580 109.264,292.800 109.400 C 293.020 109.536,293.200 110.087,293.200 110.624 C 293.200 111.161,293.380 111.600,293.600 111.600 C 293.820 111.600,294.000 112.039,294.000 112.576 C 294.000 113.113,294.180 113.664,294.400 113.800 C 294.620 113.936,294.800 114.476,294.800 115.000 C 294.800 115.524,294.980 116.064,295.200 116.200 C 295.420 116.336,295.600 116.876,295.600 117.400 C 295.600 117.924,295.780 118.464,296.000 118.600 C 296.220 118.736,296.400 119.467,296.400 120.224 C 296.400 120.981,296.580 121.600,296.800 121.600 C 297.020 121.600,297.200 122.320,297.200 123.200 C 297.200 124.080,297.380 124.800,297.600 124.800 C 297.820 124.800,298.000 125.664,298.000 126.720 C 298.000 127.776,298.163 128.811,298.363 129.020 C 300.121 130.859,300.407 152.775,298.799 162.400 C 298.560 163.830,298.265 165.855,298.144 166.900 C 298.022 167.945,297.760 168.800,297.561 168.800 C 297.363 168.800,297.200 169.520,297.200 170.400 C 297.200 171.280,297.020 172.000,296.800 172.000 C 296.580 172.000,296.400 172.619,296.400 173.376 C 296.400 174.133,296.220 174.864,296.000 175.000 C 295.780 175.136,295.600 175.676,295.600 176.200 C 295.600 176.724,295.420 177.264,295.200 177.400 C 294.980 177.536,294.800 178.076,294.800 178.600 C 294.800 179.124,294.620 179.664,294.400 179.800 C 294.180 179.936,294.000 180.487,294.000 181.024 C 294.000 181.561,293.820 182.000,293.600 182.000 C 293.380 182.000,293.200 182.450,293.200 183.000 C 293.200 183.550,293.020 184.000,292.800 184.000 C 292.580 184.000,292.400 184.450,292.400 185.000 C 292.400 185.550,292.220 186.000,292.000 186.000 C 291.780 186.000,291.600 186.232,291.600 186.515 C 291.600 188.155,283.810 202.199,281.719 204.329 C 281.434 204.619,281.200 205.016,281.200 205.210 C 281.200 205.405,280.791 205.977,280.291 206.482 C 279.792 206.987,278.942 208.023,278.404 208.784 C 275.688 212.627,263.039 225.200,261.890 225.200 C 261.710 225.200,261.127 225.637,260.593 226.171 C 260.059 226.705,259.077 227.464,258.411 227.857 C 257.745 228.251,257.200 228.714,257.200 228.886 C 257.200 229.059,256.930 229.200,256.600 229.200 C 256.270 229.200,256.000 229.380,256.000 229.600 C 256.000 229.820,255.812 230.000,255.583 230.000 C 255.354 230.000,254.780 230.360,254.308 230.800 C 253.836 231.240,253.213 231.600,252.925 231.600 C 252.636 231.600,252.400 231.767,252.400 231.971 C 252.400 232.175,252.175 232.400,251.900 232.472 C 251.625 232.544,250.458 233.142,249.306 233.801 L 247.212 235.000 247.206 314.900 L 247.200 394.800 248.200 394.800 C 248.750 394.800,249.200 394.659,249.200 394.487 C 249.200 394.315,249.687 394.134,250.282 394.085 C 250.878 394.036,251.544 393.816,251.762 393.598 C 251.981 393.379,252.739 393.200,253.447 393.200 C 254.154 393.200,254.793 393.029,254.867 392.820 C 254.940 392.611,255.754 392.397,256.676 392.343 C 257.598 392.290,258.262 392.101,258.153 391.923 C 258.043 391.745,258.383 391.600,258.910 391.600 C 259.436 391.600,259.992 391.475,260.145 391.322 C 260.298 391.169,260.956 391.003,261.607 390.953 C 262.258 390.904,263.336 390.591,264.002 390.259 C 264.668 389.927,265.121 389.805,265.007 389.989 C 264.759 390.390,269.236 388.854,269.780 388.351 C 269.989 388.158,270.497 388.000,270.909 388.000 C 271.320 388.000,271.929 387.728,272.261 387.396 C 272.593 387.064,273.030 386.895,273.232 387.020 C 273.435 387.145,273.600 387.057,273.600 386.824 C 273.600 386.591,274.039 386.400,274.576 386.400 C 275.113 386.400,275.664 386.220,275.800 386.000 C 275.936 385.780,276.397 385.600,276.824 385.600 C 277.251 385.600,277.601 385.465,277.603 385.300 C 277.607 384.889,279.591 384.000,280.503 384.000 C 280.912 384.000,281.160 383.858,281.052 383.685 C 280.945 383.512,281.340 383.330,281.929 383.281 C 282.518 383.233,283.060 383.015,283.133 382.797 C 283.207 382.578,283.612 382.400,284.033 382.400 C 284.455 382.400,284.800 382.220,284.800 382.000 C 284.800 381.780,285.160 381.600,285.600 381.600 C 286.040 381.600,286.400 381.420,286.400 381.200 C 286.400 380.980,286.535 380.821,286.700 380.847 C 287.687 381.003,288.558 380.761,288.087 380.462 C 287.738 380.241,288.091 379.966,289.187 379.604 C 290.074 379.312,290.800 378.921,290.800 378.736 C 290.800 378.551,291.252 378.400,291.804 378.400 C 292.373 378.400,293.351 377.881,294.063 377.200 C 294.754 376.540,295.727 376.000,296.226 376.000 C 296.725 376.000,297.197 375.810,297.274 375.578 C 297.351 375.346,297.708 375.113,298.067 375.061 C 298.426 375.008,298.979 374.749,299.296 374.486 C 299.614 374.222,299.992 374.125,300.137 374.270 C 300.282 374.415,300.400 374.351,300.400 374.127 C 300.400 373.904,301.120 373.397,302.000 373.000 C 302.880 372.603,303.600 372.126,303.600 371.939 C 303.600 371.753,303.735 371.634,303.900 371.675 C 304.374 371.794,307.200 369.963,307.200 369.537 C 307.200 369.326,307.380 369.264,307.600 369.400 C 307.820 369.536,308.000 369.491,308.000 369.301 C 308.000 369.110,308.720 368.636,309.600 368.248 C 310.480 367.860,311.200 367.375,311.200 367.171 C 311.200 366.967,311.481 366.800,311.824 366.800 C 312.167 366.800,312.336 366.620,312.200 366.400 C 312.064 366.180,312.323 366.000,312.776 366.000 C 313.229 366.000,313.600 365.859,313.600 365.686 C 313.600 365.514,314.133 365.057,314.785 364.672 C 315.437 364.287,316.202 363.753,316.485 363.486 C 316.768 363.219,317.489 362.748,318.086 362.440 C 318.684 362.132,319.090 361.745,318.989 361.582 C 318.799 361.275,319.965 360.623,320.500 360.736 C 320.665 360.771,320.800 360.530,320.800 360.200 C 320.800 359.659,321.275 359.422,322.100 359.553 C 322.265 359.579,322.400 359.414,322.400 359.187 C 322.400 358.960,322.744 358.645,323.164 358.487 C 323.585 358.329,324.646 357.536,325.521 356.724 C 326.397 355.912,327.223 355.357,327.357 355.490 C 327.491 355.624,327.600 355.510,327.600 355.238 C 327.600 354.690,328.792 353.347,328.813 353.871 C 328.821 354.052,329.181 353.775,329.613 353.256 C 330.046 352.736,330.400 352.449,330.400 352.617 C 330.400 352.785,330.736 352.535,331.147 352.061 C 331.558 351.588,332.128 351.200,332.414 351.200 C 332.699 351.200,332.832 351.099,332.709 350.976 C 332.421 350.688,334.297 348.800,334.871 348.800 C 335.528 348.800,336.819 347.155,336.530 346.687 C 336.390 346.461,336.444 346.380,336.649 346.507 C 336.854 346.633,338.981 344.771,341.377 342.368 C 343.773 339.966,345.913 338.000,346.133 338.000 C 346.353 338.000,346.412 337.879,346.263 337.730 C 346.115 337.582,346.460 337.154,347.030 336.780 C 347.600 336.407,348.051 335.988,348.033 335.850 C 347.908 334.904,348.048 334.656,348.400 335.200 C 348.658 335.600,348.790 335.633,348.794 335.300 C 348.807 334.217,349.570 333.145,350.100 333.466 C 350.265 333.565,350.400 333.460,350.400 333.231 C 350.400 333.002,351.209 331.970,352.198 330.938 C 353.186 329.906,353.913 328.979,353.812 328.878 C 353.711 328.777,354.181 328.178,354.856 327.547 C 355.532 326.916,355.969 326.400,355.829 326.400 C 355.688 326.400,356.157 325.829,356.872 325.130 C 358.196 323.835,360.141 321.200,359.772 321.200 C 359.660 321.200,359.801 320.949,360.084 320.642 C 360.368 320.335,360.763 320.183,360.962 320.304 C 361.161 320.425,361.216 320.350,361.085 320.137 C 360.786 319.654,362.160 317.494,362.530 317.863 C 362.679 318.012,362.800 317.833,362.800 317.467 C 362.800 317.100,362.950 316.800,363.132 316.800 C 363.315 316.800,363.719 316.305,364.030 315.700 C 364.340 315.095,364.911 314.309,365.297 313.953 C 365.684 313.597,366.000 313.002,366.000 312.629 C 366.000 312.257,366.180 312.064,366.400 312.200 C 366.620 312.336,366.800 312.167,366.800 311.824 C 366.800 311.481,367.025 311.197,367.300 311.194 C 367.633 311.190,367.600 311.058,367.200 310.800 C 366.724 310.492,366.807 310.410,367.600 310.400 C 368.235 310.392,368.421 310.274,368.109 310.076 C 367.748 309.846,367.827 309.613,368.409 309.194 C 368.844 308.880,369.200 308.293,369.200 307.888 C 369.200 307.484,369.367 307.256,369.571 307.382 C 369.775 307.508,370.051 307.271,370.183 306.855 C 370.315 306.438,370.857 305.592,371.389 304.974 C 371.920 304.356,372.277 303.725,372.183 303.572 C 372.089 303.420,372.462 302.631,373.012 301.820 C 373.563 301.009,373.892 300.150,373.745 299.911 C 373.594 299.667,373.661 299.590,373.896 299.736 C 374.297 299.983,374.790 299.247,375.034 298.040 C 375.096 297.732,375.384 297.330,375.673 297.146 C 376.100 296.876,376.093 296.811,375.639 296.806 C 375.232 296.802,375.287 296.608,375.839 296.100 C 376.257 295.715,376.658 295.130,376.730 294.800 C 376.801 294.470,377.028 294.140,377.232 294.066 C 377.437 293.992,377.503 293.767,377.379 293.566 C 377.255 293.365,377.373 293.200,377.643 293.200 C 377.913 293.200,378.012 293.078,377.863 292.930 C 377.714 292.781,377.964 292.264,378.417 291.782 C 378.871 291.299,379.270 290.528,379.305 290.069 C 379.339 289.610,379.447 289.314,379.544 289.411 C 379.806 289.673,380.800 287.619,380.800 286.816 C 380.800 286.436,381.160 285.798,381.600 285.400 C 382.040 285.002,382.400 284.359,382.400 283.971 C 382.400 283.584,382.578 283.207,382.797 283.133 C 383.015 283.060,383.234 282.505,383.284 281.900 C 383.334 281.295,383.515 280.800,383.687 280.800 C 383.859 280.800,384.000 280.440,384.000 280.000 C 384.000 279.560,384.180 279.200,384.400 279.200 C 384.620 279.200,384.800 278.840,384.800 278.400 C 384.800 277.960,384.980 277.600,385.200 277.600 C 385.420 277.600,385.600 277.049,385.600 276.376 C 385.600 275.663,385.767 275.256,386.000 275.400 C 386.220 275.536,386.400 275.277,386.400 274.824 C 386.400 274.371,386.560 274.000,386.755 274.000 C 387.096 274.000,387.264 273.440,387.833 270.400 C 387.977 269.630,388.412 268.640,388.800 268.200 C 389.188 267.760,389.609 266.814,389.736 266.098 C 390.000 264.610,390.121 264.191,390.691 262.800 C 390.916 262.250,391.057 261.395,391.005 260.900 C 390.953 260.405,391.065 260.000,391.255 260.000 C 391.445 260.000,391.600 259.676,391.600 259.280 C 391.600 258.884,391.825 258.318,392.100 258.021 C 392.500 257.590,392.500 257.539,392.100 257.765 C 391.825 257.920,391.600 257.857,391.600 257.624 C 391.600 257.391,391.780 257.200,392.000 257.200 C 392.220 257.200,392.400 256.930,392.400 256.600 C 392.400 256.270,392.580 256.000,392.800 256.000 C 393.020 256.000,393.200 255.089,393.200 253.976 C 393.200 252.729,393.353 252.048,393.600 252.200 C 393.847 252.353,394.000 251.649,394.000 250.357 C 394.000 249.207,394.122 248.388,394.270 248.537 C 394.717 248.984,395.588 245.935,395.594 243.900 C 395.597 242.855,395.780 242.000,396.000 242.000 C 396.220 242.000,396.400 241.201,396.400 240.224 C 396.400 239.247,396.580 238.336,396.800 238.200 C 397.020 238.064,397.200 237.323,397.200 236.553 C 397.200 235.721,397.362 235.253,397.600 235.400 C 397.855 235.557,398.000 234.404,398.000 232.224 C 398.000 230.208,398.164 228.800,398.400 228.800 C 398.627 228.800,398.803 227.629,398.806 226.100 C 398.810 224.209,398.928 223.580,399.200 224.000 C 399.413 224.330,399.591 224.411,399.594 224.180 C 399.597 223.949,399.375 223.518,399.100 223.221 C 398.825 222.925,398.798 222.793,399.040 222.928 C 399.544 223.209,400.000 217.276,400.000 210.437 L 400.000 206.199 339.128 145.400 C 305.649 111.960,278.514 84.958,278.828 85.395 M118.564 88.929 C 118.109 89.628,117.415 90.695,117.022 91.300 C 116.629 91.905,116.393 92.400,116.497 92.400 C 116.766 92.400,119.686 87.953,119.524 87.791 C 119.451 87.717,119.018 88.229,118.564 88.929 M103.049 122.615 C 102.912 122.973,102.815 123.566,102.834 123.933 C 102.853 124.300,103.027 124.069,103.221 123.420 C 103.598 122.158,103.465 121.533,103.049 122.615 M101.301 131.800 C 101.305 132.680,101.387 132.993,101.483 132.495 C 101.579 131.998,101.575 131.278,101.475 130.895 C 101.375 130.513,101.296 130.920,101.301 131.800 M100.540 139.600 C 100.540 141.470,100.609 142.235,100.693 141.300 C 100.777 140.365,100.777 138.835,100.693 137.900 C 100.609 136.965,100.540 137.730,100.540 139.600 M100.120 146.800 C 100.120 148.010,100.195 148.505,100.287 147.900 C 100.378 147.295,100.378 146.305,100.287 145.700 C 100.195 145.095,100.120 145.590,100.120 146.800 M100.540 154.000 C 100.540 155.870,100.609 156.635,100.693 155.700 C 100.777 154.765,100.777 153.235,100.693 152.300 C 100.609 151.365,100.540 152.130,100.540 154.000 M101.228 161.633 C 101.244 162.385,101.412 163.360,101.603 163.800 C 101.826 164.315,101.867 163.887,101.718 162.600 C 101.444 160.222,101.189 159.719,101.228 161.633 M102.093 166.400 C 102.093 167.170,102.175 167.485,102.276 167.100 C 102.376 166.715,102.376 166.085,102.276 165.700 C 102.175 165.315,102.093 165.630,102.093 166.400 M102.806 169.833 C 102.809 170.255,102.995 170.870,103.218 171.200 C 103.515 171.638,103.552 171.476,103.356 170.600 C 103.027 169.129,102.798 168.810,102.806 169.833 M103.606 173.033 C 103.609 173.455,103.795 174.070,104.018 174.400 C 104.315 174.838,104.352 174.676,104.156 173.800 C 103.827 172.329,103.598 172.010,103.606 173.033 M113.800 197.200 C 114.141 197.860,114.511 198.400,114.621 198.400 C 114.731 198.400,114.541 197.860,114.200 197.200 C 113.859 196.540,113.489 196.000,113.379 196.000 C 113.269 196.000,113.459 196.540,113.800 197.200 M116.267 201.206 C 116.659 201.870,117.398 202.905,117.910 203.506 C 118.421 204.108,118.175 203.565,117.363 202.300 C 115.824 199.903,115.028 199.107,116.267 201.206 M123.201 210.600 C 123.751 211.260,124.245 211.875,124.300 211.967 C 124.355 212.058,124.488 212.045,124.596 211.938 C 124.704 211.830,124.209 211.215,123.497 210.571 L 122.203 209.400 123.201 210.600 M129.800 217.600 C 132.212 220.020,134.276 222.000,134.386 222.000 C 134.496 222.000,132.612 220.020,130.200 217.600 C 127.788 215.180,125.724 213.200,125.614 213.200 C 125.504 213.200,127.388 215.180,129.800 217.600 M135.622 223.100 C 135.634 223.265,136.219 223.838,136.922 224.374 L 138.200 225.349 137.025 224.074 C 135.803 222.749,135.585 222.597,135.622 223.100 M144.200 231.239 C 147.500 234.628,150.785 237.913,151.500 238.539 L 152.800 239.679 152.800 237.299 L 152.800 234.920 150.773 233.660 C 149.659 232.967,148.661 232.400,148.555 232.400 C 148.333 232.400,142.299 228.379,142.000 228.032 C 141.890 227.905,140.990 227.188,140.000 226.439 C 139.010 225.690,140.900 227.850,144.200 231.239 M152.996 317.000 C 152.996 359.460,153.043 376.771,153.100 355.468 C 153.157 334.166,153.157 299.426,153.100 278.268 C 153.043 257.111,152.996 274.540,152.996 317.000 " stroke="none" fill="#2cace4" fill-rule="evenodd"></path><path id="path2" d="M178.900 0.273 C 176.865 0.359,175.200 0.603,175.200 0.815 C 175.200 1.027,173.864 1.200,172.224 1.200 C 170.587 1.200,169.136 1.380,169.000 1.600 C 168.864 1.820,167.863 2.000,166.776 2.000 C 165.689 2.000,164.800 2.180,164.800 2.400 C 164.800 2.620,163.821 2.800,162.624 2.800 C 161.427 2.800,160.336 2.980,160.200 3.200 C 160.064 3.420,159.243 3.600,158.376 3.600 C 157.509 3.600,156.800 3.780,156.800 4.000 C 156.800 4.220,156.001 4.400,155.024 4.400 C 154.047 4.400,153.136 4.580,153.000 4.800 C 152.864 5.020,152.133 5.200,151.376 5.200 C 150.619 5.200,150.000 5.360,150.000 5.556 C 150.000 5.752,149.370 6.022,148.600 6.156 C 147.830 6.290,146.568 6.510,145.796 6.644 C 145.024 6.779,144.294 7.049,144.173 7.244 C 144.052 7.440,143.434 7.600,142.800 7.600 C 142.166 7.600,141.536 7.780,141.400 8.000 C 141.264 8.220,140.623 8.400,139.976 8.400 C 139.329 8.400,138.800 8.580,138.800 8.800 C 138.800 9.020,138.386 9.200,137.880 9.200 C 137.374 9.200,136.781 9.379,136.562 9.598 C 136.221 9.939,134.829 10.274,132.900 10.480 C 132.625 10.509,132.400 10.683,132.400 10.867 C 132.400 11.050,131.965 11.200,131.433 11.200 C 130.902 11.200,130.407 11.335,130.333 11.500 C 130.168 11.871,126.592 13.237,125.100 13.498 C 124.495 13.604,124.000 13.850,124.000 14.045 C 124.000 14.240,123.640 14.400,123.200 14.400 C 122.760 14.400,122.400 14.550,122.400 14.733 C 122.400 14.917,122.175 15.084,121.900 15.104 C 120.874 15.181,118.403 16.269,118.663 16.530 C 118.812 16.678,118.631 16.800,118.261 16.800 C 117.892 16.800,117.187 17.008,116.695 17.262 C 114.818 18.233,114.393 18.400,113.805 18.400 C 113.472 18.400,113.199 18.535,113.197 18.700 C 113.194 19.014,111.294 20.000,110.692 20.000 C 110.500 20.000,110.071 20.272,109.739 20.604 C 109.407 20.936,108.970 21.105,108.768 20.980 C 108.565 20.855,108.400 20.905,108.400 21.090 C 108.400 21.276,107.860 21.746,107.200 22.136 C 106.540 22.526,106.000 22.733,106.000 22.595 C 106.000 22.458,105.477 22.718,104.838 23.173 C 104.199 23.628,103.479 24.000,103.238 24.000 C 102.997 24.000,102.800 24.180,102.800 24.400 C 102.800 24.620,102.440 24.800,102.000 24.800 C 101.560 24.800,101.200 24.980,101.200 25.200 C 101.200 25.420,100.930 25.600,100.600 25.600 C 100.270 25.600,100.000 25.780,100.000 26.000 C 100.000 26.220,99.730 26.400,99.400 26.400 C 99.070 26.400,98.800 26.580,98.800 26.800 C 98.800 27.020,98.470 27.200,98.066 27.200 C 97.663 27.200,96.305 27.920,95.049 28.800 C 93.792 29.680,92.615 30.400,92.431 30.400 C 92.248 30.400,91.874 30.670,91.600 31.000 C 91.326 31.330,90.804 31.600,90.439 31.600 C 90.075 31.600,89.517 31.960,89.200 32.400 C 88.883 32.840,88.346 33.200,88.008 33.200 C 87.669 33.200,87.168 33.560,86.893 34.000 C 86.618 34.440,86.168 34.800,85.892 34.800 C 85.617 34.800,84.678 35.416,83.807 36.169 C 82.936 36.922,82.116 37.471,81.984 37.390 C 81.853 37.309,81.493 37.593,81.185 38.021 C 80.876 38.450,80.403 38.800,80.134 38.800 C 79.865 38.800,79.410 39.126,79.123 39.525 C 78.835 39.924,77.978 40.689,77.217 41.225 C 76.456 41.761,75.430 42.560,74.936 43.000 C 73.317 44.443,72.800 44.835,72.800 44.618 C 72.800 44.500,71.855 45.290,70.700 46.373 C 67.557 49.319,66.244 50.399,65.800 50.401 C 65.580 50.402,65.040 50.941,64.600 51.600 C 64.160 52.259,63.644 52.798,63.454 52.799 C 63.264 52.799,62.454 53.554,61.654 54.476 C 59.794 56.621,56.621 59.794,54.476 61.654 C 53.554 62.454,52.799 63.264,52.799 63.454 C 52.798 63.644,52.259 64.160,51.600 64.600 C 50.941 65.040,50.402 65.580,50.401 65.800 C 50.399 66.244,49.319 67.557,46.373 70.700 C 45.290 71.855,44.500 72.800,44.618 72.800 C 44.835 72.800,44.443 73.317,43.000 74.936 C 42.560 75.430,41.761 76.456,41.225 77.217 C 40.689 77.978,39.924 78.835,39.525 79.123 C 39.126 79.410,38.800 79.865,38.800 80.134 C 38.800 80.403,38.450 80.876,38.021 81.185 C 37.593 81.493,37.309 81.853,37.390 81.984 C 37.471 82.116,36.922 82.936,36.169 83.807 C 35.416 84.678,34.800 85.617,34.800 85.892 C 34.800 86.168,34.440 86.618,34.000 86.893 C 33.560 87.168,33.200 87.669,33.200 88.008 C 33.200 88.346,32.840 88.883,32.400 89.200 C 31.960 89.517,31.600 90.075,31.600 90.439 C 31.600 90.804,31.330 91.326,31.000 91.600 C 30.670 91.874,30.400 92.248,30.400 92.431 C 30.400 92.615,29.680 93.792,28.800 95.049 C 27.920 96.305,27.200 97.663,27.200 98.066 C 27.200 98.470,27.020 98.800,26.800 98.800 C 26.580 98.800,26.400 99.070,26.400 99.400 C 26.400 99.730,26.220 100.000,26.000 100.000 C 25.780 100.000,25.600 100.270,25.600 100.600 C 25.600 100.930,25.420 101.200,25.200 101.200 C 24.980 101.200,24.800 101.560,24.800 102.000 C 24.800 102.440,24.620 102.800,24.400 102.800 C 24.180 102.800,24.000 102.997,24.000 103.238 C 24.000 103.479,23.628 104.199,23.173 104.838 C 22.718 105.477,22.458 106.000,22.595 106.000 C 22.733 106.000,22.526 106.540,22.136 107.200 C 21.746 107.860,21.276 108.400,21.090 108.400 C 20.905 108.400,20.855 108.565,20.980 108.768 C 21.105 108.970,20.936 109.407,20.604 109.739 C 20.272 110.071,20.000 110.500,20.000 110.692 C 20.000 111.294,19.014 113.194,18.700 113.197 C 18.535 113.199,18.400 113.472,18.400 113.805 C 18.400 114.393,18.233 114.818,17.262 116.695 C 17.008 117.187,16.800 117.892,16.800 118.261 C 16.800 118.631,16.678 118.812,16.530 118.663 C 16.269 118.403,15.181 120.874,15.104 121.900 C 15.084 122.175,14.917 122.400,14.733 122.400 C 14.550 122.400,14.400 122.760,14.400 123.200 C 14.400 123.640,14.240 124.000,14.045 124.000 C 13.850 124.000,13.604 124.495,13.498 125.100 C 13.237 126.592,11.871 130.168,11.500 130.333 C 11.335 130.407,11.200 130.902,11.200 131.433 C 11.200 131.965,11.050 132.400,10.867 132.400 C 10.683 132.400,10.509 132.625,10.480 132.900 C 10.274 134.829,9.939 136.221,9.598 136.562 C 9.379 136.781,9.200 137.374,9.200 137.880 C 9.200 138.386,9.020 138.800,8.800 138.800 C 8.580 138.800,8.400 139.329,8.400 139.976 C 8.400 140.623,8.220 141.264,8.000 141.400 C 7.780 141.536,7.600 142.166,7.600 142.800 C 7.600 143.434,7.440 144.052,7.244 144.173 C 6.908 144.380,6.786 144.873,6.168 148.500 C 6.027 149.325,5.752 150.000,5.556 150.000 C 5.360 150.000,5.200 150.619,5.200 151.376 C 5.200 152.133,5.020 152.864,4.800 153.000 C 4.580 153.136,4.400 154.047,4.400 155.024 C 4.400 156.001,4.220 156.800,4.000 156.800 C 3.780 156.800,3.600 157.509,3.600 158.376 C 3.600 159.243,3.420 160.064,3.200 160.200 C 2.980 160.336,2.800 161.427,2.800 162.624 C 2.800 163.821,2.620 164.800,2.400 164.800 C 2.180 164.800,2.000 165.689,2.000 166.776 C 2.000 167.863,1.820 168.864,1.600 169.000 C 1.380 169.136,1.200 170.572,1.200 172.190 C 1.200 174.189,1.040 175.187,0.700 175.300 C 0.001 175.533,-0.035 224.284,0.663 224.716 C 0.918 224.873,1.229 226.261,1.354 227.801 C 1.843 233.802,2.083 235.600,2.397 235.600 C 2.576 235.600,2.825 236.455,2.951 237.500 C 3.517 242.225,3.704 243.200,4.040 243.200 C 4.238 243.200,4.400 243.999,4.400 244.976 C 4.400 245.953,4.580 246.864,4.800 247.000 C 5.020 247.136,5.200 247.967,5.200 248.847 C 5.200 249.812,5.359 250.349,5.600 250.200 C 5.838 250.053,6.000 250.521,6.000 251.353 C 6.000 252.123,6.180 252.864,6.400 253.000 C 6.620 253.136,6.800 253.867,6.800 254.624 C 6.800 255.381,6.980 256.000,7.200 256.000 C 7.420 256.000,7.600 256.302,7.600 256.672 C 7.600 257.424,8.313 259.833,8.849 260.895 C 9.042 261.277,9.200 261.941,9.200 262.371 C 9.200 262.801,9.356 263.249,9.547 263.367 C 9.738 263.485,10.014 264.486,10.161 265.591 C 10.308 266.696,10.580 267.600,10.767 267.600 C 10.954 267.600,11.198 268.005,11.309 268.500 C 11.641 269.977,13.671 275.370,14.049 275.780 C 14.242 275.989,14.400 276.484,14.400 276.880 C 14.400 277.276,14.550 277.600,14.733 277.600 C 14.917 277.600,15.074 277.825,15.082 278.100 C 15.111 279.017,15.395 279.776,15.920 280.339 C 16.205 280.645,16.543 281.415,16.670 282.048 C 16.796 282.682,17.058 283.200,17.250 283.200 C 17.443 283.200,17.600 283.472,17.600 283.805 C 17.600 284.138,17.760 284.723,17.956 285.105 C 18.152 285.487,18.737 286.700,19.256 287.800 C 19.775 288.900,20.335 289.860,20.500 289.933 C 20.665 290.007,20.800 290.412,20.800 290.833 C 20.800 291.255,20.960 291.600,21.157 291.600 C 21.353 291.600,21.797 292.275,22.145 293.100 C 22.919 294.938,24.096 296.954,24.500 297.133 C 24.665 297.207,24.800 297.612,24.800 298.033 C 24.800 298.455,24.980 298.800,25.200 298.800 C 25.420 298.800,25.600 299.171,25.600 299.624 C 25.600 300.077,25.780 300.336,26.000 300.200 C 26.220 300.064,26.400 300.233,26.400 300.576 C 26.400 300.919,26.560 301.200,26.757 301.200 C 27.105 301.200,27.796 303.103,27.666 303.700 C 27.630 303.865,27.739 304.000,27.909 304.000 C 28.079 304.000,28.557 304.630,28.972 305.400 C 29.387 306.170,29.878 306.800,30.063 306.800 C 30.248 306.800,30.400 307.042,30.400 307.339 C 30.400 307.635,30.756 308.288,31.192 308.790 C 31.627 309.292,31.907 309.827,31.813 309.979 C 31.719 310.130,31.993 310.507,32.421 310.815 C 32.850 311.124,33.200 311.580,33.200 311.829 C 33.200 312.078,33.740 312.846,34.400 313.537 C 35.060 314.228,35.600 314.972,35.600 315.192 C 35.600 315.566,36.357 316.611,37.500 317.816 C 37.775 318.106,38.000 318.536,38.000 318.771 C 38.000 319.007,38.168 319.200,38.373 319.200 C 38.578 319.200,38.850 319.515,38.977 319.900 C 39.104 320.285,39.701 321.170,40.304 321.868 C 40.907 322.565,41.940 323.791,42.600 324.593 C 43.260 325.394,44.031 326.302,44.314 326.611 C 44.597 326.919,44.777 327.236,44.714 327.316 C 44.599 327.462,45.911 328.967,48.313 331.445 C 49.036 332.190,49.545 332.800,49.444 332.800 C 49.344 332.800,49.743 333.311,50.331 333.935 C 53.539 337.340,56.910 340.794,58.453 342.257 C 59.414 343.169,61.234 345.014,62.497 346.357 C 63.760 347.701,64.986 348.800,65.221 348.800 C 65.455 348.800,65.536 348.980,65.400 349.200 C 65.264 349.420,65.433 349.600,65.776 349.600 C 66.119 349.600,66.400 349.780,66.400 350.000 C 66.400 350.220,66.600 350.400,66.843 350.400 C 67.087 350.400,68.255 351.345,69.437 352.500 C 72.119 355.119,72.800 355.701,72.800 355.373 C 72.800 355.232,73.340 355.693,74.000 356.400 C 74.660 357.107,75.200 357.569,75.200 357.427 C 75.200 357.285,75.594 357.536,76.075 357.984 C 76.557 358.433,77.103 358.800,77.289 358.800 C 77.475 358.800,78.152 359.295,78.793 359.900 C 80.894 361.882,81.787 362.592,82.902 363.168 C 83.506 363.480,84.000 363.885,84.000 364.068 C 84.000 364.250,84.320 364.400,84.712 364.400 C 85.103 364.400,85.683 364.760,86.000 365.200 C 86.317 365.640,86.807 366.000,87.088 366.000 C 87.370 366.000,87.600 366.180,87.600 366.400 C 87.600 366.620,87.830 366.800,88.112 366.800 C 88.393 366.800,88.883 367.160,89.200 367.600 C 89.517 368.040,90.097 368.400,90.488 368.400 C 90.880 368.400,91.200 368.559,91.200 368.754 C 91.200 368.949,91.822 369.404,92.583 369.765 C 93.344 370.126,94.062 370.577,94.180 370.767 C 94.297 370.957,95.340 371.606,96.497 372.210 C 97.653 372.813,99.026 373.640,99.547 374.048 C 100.068 374.456,100.653 374.691,100.847 374.571 C 101.041 374.451,101.200 374.543,101.200 374.776 C 101.200 375.009,101.560 375.200,102.000 375.200 C 102.440 375.200,102.801 375.335,102.803 375.500 C 102.805 375.665,103.210 375.998,103.703 376.240 C 106.111 377.422,108.213 378.630,108.333 378.900 C 108.407 379.065,108.686 379.200,108.954 379.200 C 109.663 379.200,111.593 380.149,111.597 380.500 C 111.599 380.665,112.050 380.800,112.600 380.800 C 113.150 380.800,113.601 380.935,113.603 381.100 C 113.607 381.459,115.544 382.400,116.280 382.400 C 116.566 382.400,116.800 382.580,116.800 382.800 C 116.800 383.020,117.072 383.200,117.405 383.200 C 118.045 383.200,119.647 383.995,120.022 384.498 C 120.145 384.662,120.730 384.836,121.322 384.885 C 121.915 384.934,122.400 385.115,122.400 385.287 C 122.400 385.459,122.760 385.600,123.200 385.600 C 123.640 385.600,124.000 385.747,124.000 385.928 C 124.000 386.108,124.900 386.500,126.000 386.800 C 127.100 387.100,128.000 387.492,128.000 387.672 C 128.000 387.853,128.450 388.000,129.000 388.000 C 129.550 388.000,130.000 388.180,130.000 388.400 C 130.000 388.620,130.414 388.800,130.920 388.800 C 131.426 388.800,132.011 388.949,132.220 389.130 C 132.598 389.459,133.624 389.786,138.200 391.033 C 139.520 391.393,140.913 391.847,141.295 392.043 C 141.677 392.240,142.431 392.400,142.971 392.400 C 143.511 392.400,144.064 392.580,144.200 392.800 C 144.336 393.020,144.966 393.200,145.600 393.200 C 146.234 393.200,146.864 393.380,147.000 393.600 C 147.136 393.820,147.867 394.000,148.624 394.000 C 149.381 394.000,150.000 394.180,150.000 394.400 C 150.000 394.620,150.630 394.800,151.400 394.800 L 152.800 394.800 152.799 317.300 L 152.799 239.800 145.242 232.400 C 141.085 228.330,134.651 222.068,130.942 218.485 C 127.234 214.902,123.571 211.122,122.803 210.085 C 122.034 209.048,121.309 208.110,121.192 208.000 C 119.740 206.634,113.144 196.408,111.969 193.700 C 111.659 192.985,111.269 192.400,111.102 192.400 C 110.936 192.400,110.800 192.155,110.800 191.856 C 110.800 191.557,110.236 190.162,109.547 188.756 C 108.858 187.350,108.138 185.795,107.947 185.300 C 107.756 184.805,107.444 183.995,107.254 183.500 C 106.676 181.999,105.927 180.240,105.553 179.505 C 105.359 179.123,105.200 178.536,105.200 178.200 C 105.200 177.864,105.038 177.277,104.839 176.895 C 104.640 176.513,104.268 175.390,104.012 174.400 C 103.756 173.410,103.395 172.060,103.210 171.400 C 102.504 168.877,101.475 163.478,100.770 158.600 C 100.173 154.465,100.173 139.135,100.770 135.000 C 101.475 130.122,102.504 124.723,103.210 122.200 C 103.395 121.540,103.756 120.190,104.012 119.200 C 104.268 118.210,104.640 117.087,104.839 116.705 C 105.038 116.323,105.200 115.659,105.200 115.229 C 105.200 114.799,105.344 114.358,105.521 114.249 C 105.697 114.140,106.090 113.139,106.393 112.025 C 106.696 110.911,107.092 110.000,107.272 110.000 C 107.453 110.000,107.600 109.728,107.600 109.395 C 107.600 109.062,107.766 108.477,107.968 108.095 C 108.171 107.713,108.898 106.140,109.584 104.600 C 110.271 103.060,111.035 101.440,111.283 101.000 C 111.531 100.560,112.273 99.210,112.930 98.000 C 114.216 95.635,119.138 87.930,119.574 87.600 C 119.720 87.490,120.274 86.770,120.806 86.000 C 121.338 85.230,121.960 84.400,122.187 84.155 C 122.414 83.910,123.590 82.568,124.800 81.171 C 130.132 75.019,139.005 67.175,144.222 64.002 C 145.090 63.474,145.890 62.943,146.000 62.821 C 146.110 62.700,146.605 62.375,147.100 62.100 C 147.595 61.825,148.405 61.375,148.900 61.100 C 149.395 60.825,149.890 60.510,150.000 60.400 C 150.513 59.887,152.059 59.200,152.695 59.204 C 153.095 59.206,173.468 79.275,199.800 105.606 L 246.200 152.006 246.404 105.503 C 246.516 79.926,246.651 58.943,246.704 58.873 C 246.838 58.696,248.557 59.254,248.800 59.555 C 248.910 59.690,249.540 60.070,250.200 60.399 C 252.033 61.313,257.956 65.172,260.200 66.914 C 264.612 70.340,266.014 71.620,271.200 76.956 C 274.170 80.012,304.382 110.342,338.339 144.356 L 400.077 206.200 399.889 190.902 C 399.771 181.235,399.549 175.419,399.288 175.102 C 399.060 174.826,398.774 173.430,398.652 172.000 C 398.337 168.311,397.744 164.128,397.602 164.600 C 397.493 164.963,397.193 163.217,396.551 158.500 C 396.424 157.565,396.158 156.800,395.960 156.800 C 395.762 156.800,395.600 156.001,395.600 155.024 C 395.600 154.047,395.420 153.136,395.200 153.000 C 394.980 152.864,394.800 152.133,394.800 151.376 C 394.800 150.619,394.620 150.000,394.400 150.000 C 394.180 150.000,394.000 149.381,394.000 148.624 C 394.000 147.867,393.820 147.136,393.600 147.000 C 393.380 146.864,393.200 146.234,393.200 145.600 C 393.200 144.966,393.020 144.336,392.800 144.200 C 392.580 144.064,392.400 143.511,392.400 142.971 C 392.400 142.431,392.240 141.677,392.043 141.295 C 391.847 140.913,391.393 139.520,391.033 138.200 C 389.786 133.624,389.459 132.598,389.130 132.220 C 388.949 132.011,388.800 131.426,388.800 130.920 C 388.800 130.414,388.620 130.000,388.400 130.000 C 388.180 130.000,388.000 129.550,388.000 129.000 C 388.000 128.450,387.853 128.000,387.672 128.000 C 387.492 128.000,387.100 127.100,386.800 126.000 C 386.500 124.900,386.108 124.000,385.928 124.000 C 385.747 124.000,385.600 123.640,385.600 123.200 C 385.600 122.760,385.459 122.400,385.287 122.400 C 385.115 122.400,384.934 121.915,384.885 121.322 C 384.836 120.730,384.662 120.145,384.498 120.022 C 383.995 119.647,383.200 118.045,383.200 117.405 C 383.200 117.072,383.020 116.800,382.800 116.800 C 382.580 116.800,382.400 116.566,382.400 116.280 C 382.400 115.544,381.459 113.607,381.100 113.603 C 380.935 113.601,380.800 113.150,380.800 112.600 C 380.800 112.050,380.665 111.599,380.500 111.597 C 380.149 111.593,379.200 109.663,379.200 108.954 C 379.200 108.686,379.065 108.407,378.900 108.333 C 378.630 108.213,377.422 106.111,376.240 103.703 C 375.998 103.210,375.665 102.805,375.500 102.803 C 375.335 102.801,375.200 102.440,375.200 102.000 C 375.200 101.560,375.009 101.200,374.776 101.200 C 374.543 101.200,374.451 101.041,374.571 100.847 C 374.691 100.653,374.456 100.068,374.048 99.547 C 373.640 99.026,372.813 97.653,372.210 96.497 C 371.606 95.340,370.957 94.297,370.767 94.180 C 370.577 94.062,370.126 93.344,369.765 92.583 C 369.404 91.822,368.949 91.200,368.754 91.200 C 368.559 91.200,368.400 90.880,368.400 90.488 C 368.400 90.097,368.040 89.517,367.600 89.200 C 367.160 88.883,366.800 88.393,366.800 88.112 C 366.800 87.830,366.620 87.600,366.400 87.600 C 366.180 87.600,366.000 87.370,366.000 87.088 C 366.000 86.807,365.640 86.317,365.200 86.000 C 364.760 85.683,364.400 85.103,364.400 84.712 C 364.400 84.320,364.250 84.000,364.068 84.000 C 363.885 84.000,363.480 83.506,363.168 82.902 C 362.592 81.787,361.882 80.894,359.900 78.793 C 359.295 78.152,358.800 77.475,358.800 77.289 C 358.800 77.103,358.433 76.557,357.984 76.075 C 357.536 75.594,357.285 75.200,357.427 75.200 C 357.569 75.200,357.107 74.660,356.400 74.000 C 355.693 73.340,355.232 72.800,355.373 72.800 C 355.701 72.800,355.119 72.119,352.500 69.437 C 351.345 68.255,350.400 67.087,350.400 66.843 C 350.400 66.600,350.220 66.400,350.000 66.400 C 349.780 66.400,349.600 66.119,349.600 65.776 C 349.600 65.433,349.420 65.264,349.200 65.400 C 348.980 65.536,348.800 65.455,348.800 65.221 C 348.800 64.986,347.701 63.760,346.357 62.497 C 345.014 61.234,343.169 59.414,342.257 58.453 C 340.794 56.910,337.340 53.539,333.935 50.331 C 333.311 49.743,332.800 49.344,332.800 49.444 C 332.800 49.545,332.190 49.036,331.445 48.313 C 329.014 45.957,327.637 44.762,327.488 44.882 C 327.408 44.947,327.052 44.730,326.696 44.400 C 326.341 44.070,325.394 43.260,324.593 42.600 C 323.791 41.940,322.565 40.907,321.868 40.304 C 321.170 39.701,320.285 39.104,319.900 38.977 C 319.515 38.850,319.200 38.578,319.200 38.373 C 319.200 38.168,319.022 38.000,318.805 38.000 C 318.433 38.000,317.385 37.240,316.184 36.100 C 315.894 35.825,315.463 35.600,315.225 35.600 C 314.987 35.600,314.228 35.060,313.537 34.400 C 312.846 33.740,312.078 33.200,311.829 33.200 C 311.580 33.200,311.124 32.850,310.815 32.421 C 310.507 31.993,310.130 31.719,309.979 31.813 C 309.827 31.907,309.292 31.627,308.790 31.192 C 308.288 30.756,307.635 30.400,307.339 30.400 C 307.042 30.400,306.800 30.248,306.800 30.063 C 306.800 29.878,306.170 29.387,305.400 28.972 C 304.630 28.557,304.000 28.079,304.000 27.909 C 304.000 27.739,303.865 27.630,303.700 27.666 C 303.103 27.796,301.200 27.105,301.200 26.757 C 301.200 26.560,300.919 26.400,300.576 26.400 C 300.233 26.400,300.064 26.220,300.200 26.000 C 300.336 25.780,300.077 25.600,299.624 25.600 C 299.171 25.600,298.800 25.420,298.800 25.200 C 298.800 24.980,298.455 24.800,298.033 24.800 C 297.612 24.800,297.207 24.665,297.133 24.500 C 296.954 24.096,294.938 22.919,293.100 22.145 C 292.275 21.797,291.600 21.353,291.600 21.157 C 291.600 20.960,291.255 20.800,290.833 20.800 C 290.412 20.800,290.007 20.665,289.933 20.500 C 289.860 20.335,288.900 19.775,287.800 19.256 C 286.700 18.737,285.487 18.152,285.105 17.956 C 284.723 17.760,284.138 17.600,283.805 17.600 C 283.472 17.600,283.200 17.443,283.200 17.250 C 283.200 17.058,282.682 16.796,282.048 16.670 C 281.415 16.543,280.645 16.205,280.339 15.920 C 279.776 15.395,279.017 15.111,278.100 15.082 C 277.825 15.074,277.600 14.917,277.600 14.733 C 277.600 14.550,277.276 14.400,276.880 14.400 C 276.484 14.400,275.989 14.242,275.780 14.049 C 275.370 13.671,269.977 11.641,268.500 11.309 C 268.005 11.198,267.600 10.954,267.600 10.767 C 267.600 10.580,266.696 10.308,265.591 10.161 C 264.486 10.014,263.485 9.738,263.367 9.547 C 263.249 9.356,262.801 9.200,262.371 9.200 C 261.941 9.200,261.277 9.042,260.895 8.849 C 259.833 8.313,257.424 7.600,256.672 7.600 C 256.302 7.600,256.000 7.420,256.000 7.200 C 256.000 6.980,255.381 6.800,254.624 6.800 C 253.867 6.800,253.136 6.620,253.000 6.400 C 252.864 6.180,252.123 6.000,251.353 6.000 C 250.521 6.000,250.053 5.838,250.200 5.600 C 250.349 5.359,249.812 5.200,248.847 5.200 C 247.967 5.200,247.136 5.020,247.000 4.800 C 246.864 4.580,245.953 4.400,244.976 4.400 C 243.999 4.400,243.200 4.238,243.200 4.040 C 243.200 3.704,242.225 3.517,237.500 2.951 C 236.455 2.825,235.600 2.576,235.600 2.397 C 235.600 2.083,233.802 1.843,227.801 1.354 C 226.261 1.229,224.879 0.928,224.728 0.684 C 224.457 0.245,187.405 -0.088,178.900 0.273 M398.877 224.017 C 398.828 224.668,398.958 225.200,399.166 225.200 C 399.375 225.200,399.497 224.750,399.439 224.199 C 399.284 222.746,398.982 222.648,398.877 224.017 M398.000 230.067 C 398.000 230.763,398.135 231.198,398.300 231.033 C 398.704 230.630,398.719 228.800,398.319 228.800 C 398.143 228.800,398.000 229.370,398.000 230.067 M396.667 238.267 C 396.252 238.682,396.353 240.000,396.800 240.000 C 397.020 240.000,397.200 239.550,397.200 239.000 C 397.200 237.953,397.108 237.826,396.667 238.267 M394.000 249.376 C 394.000 249.939,394.142 250.400,394.315 250.400 C 394.769 250.400,394.819 248.859,394.375 248.584 C 394.169 248.457,394.000 248.813,394.000 249.376 M391.710 258.000 C 391.743 258.440,391.901 258.800,392.060 258.800 C 392.220 258.800,392.323 258.440,392.290 258.000 C 392.257 257.560,392.099 257.200,391.940 257.200 C 391.780 257.200,391.677 257.560,391.710 258.000 M361.677 318.426 C 361.109 319.335,361.412 319.445,362.232 318.626 C 362.548 318.310,362.661 317.961,362.483 317.851 C 362.305 317.742,361.943 318.000,361.677 318.426 M360.293 320.400 C 359.623 321.183,359.806 321.477,360.600 320.894 C 360.964 320.626,361.352 319.600,361.089 319.600 C 361.028 319.600,360.670 319.960,360.293 320.400 M349.304 333.821 C 349.031 334.116,348.941 334.438,349.104 334.537 C 349.267 334.635,349.623 334.474,349.896 334.179 C 350.169 333.884,350.259 333.562,350.096 333.463 C 349.933 333.365,349.577 333.526,349.304 333.821 M333.687 349.609 C 333.219 350.359,333.241 350.381,333.991 349.913 C 334.436 349.635,334.800 349.271,334.800 349.104 C 334.800 348.526,334.191 348.803,333.687 349.609 M294.629 376.609 C 294.205 376.929,293.965 377.299,294.096 377.429 C 294.226 377.560,294.708 377.292,295.167 376.833 C 296.119 375.881,295.779 375.739,294.629 376.609 M251.800 393.600 C 251.664 393.820,251.823 394.000,252.153 394.000 C 252.483 394.000,252.864 393.820,253.000 393.600 C 253.136 393.380,252.977 393.200,252.647 393.200 C 252.317 393.200,251.936 393.380,251.800 393.600 " stroke="none" fill="#43c3fb" fill-rule="evenodd"></path><path id="path3" d="M150.200 60.700 C 146.162 63.049,142.833 65.256,140.258 67.293 C 138.906 68.362,137.080 69.803,136.200 70.496 C 131.003 74.586,120.379 86.499,117.201 91.800 C 116.674 92.680,116.133 93.490,115.999 93.600 C 115.160 94.290,108.617 106.750,108.929 107.063 C 109.028 107.162,109.799 105.838,110.642 104.121 C 116.572 92.041,123.161 83.255,133.859 73.170 C 137.186 70.033,149.262 61.200,150.223 61.200 C 150.362 61.200,150.999 60.828,151.638 60.373 L 152.800 59.546 152.800 111.924 C 152.800 157.988,152.872 164.362,153.400 164.800 C 153.877 165.196,163.522 165.216,200.500 164.897 L 247.000 164.497 200.200 164.548 L 153.400 164.600 153.299 112.219 C 153.243 83.409,153.063 59.717,152.899 59.571 C 152.734 59.424,151.520 59.933,150.200 60.700 M246.898 105.900 L 246.997 152.600 247.100 106.100 C 247.163 77.531,247.348 59.600,247.578 59.600 C 247.784 59.600,248.064 59.780,248.200 60.000 C 248.336 60.220,248.651 60.400,248.900 60.400 C 249.512 60.400,247.933 59.229,247.300 59.213 C 246.902 59.203,246.820 68.749,246.898 105.900 M250.200 61.007 C 250.640 61.366,251.360 61.835,251.800 62.051 L 252.600 62.444 251.800 61.793 C 251.360 61.434,250.640 60.965,250.200 60.749 L 249.400 60.356 250.200 61.007 M253.656 63.166 C 254.175 63.587,254.677 63.855,254.771 63.761 C 254.976 63.557,253.544 62.431,253.056 62.413 C 252.866 62.406,253.136 62.745,253.656 63.166 M255.994 64.782 C 256.541 65.202,257.068 65.466,257.165 65.369 C 257.391 65.142,255.929 64.027,255.400 64.022 C 255.180 64.020,255.447 64.361,255.994 64.782 M264.000 70.724 C 264.000 70.949,264.158 71.193,264.352 71.267 C 265.188 71.584,270.757 76.862,273.318 79.765 C 274.854 81.506,276.040 82.734,275.955 82.495 C 275.424 81.002,264.000 69.755,264.000 70.724 M277.494 84.500 C 277.710 84.775,278.893 86.350,280.123 88.000 C 283.235 92.175,283.865 92.927,282.973 91.400 C 282.103 89.911,277.573 84.000,277.301 84.000 C 277.192 84.000,277.279 84.225,277.494 84.500 M283.600 93.138 C 283.600 93.324,283.988 93.819,284.462 94.238 L 285.324 95.000 284.616 93.900 C 283.886 92.766,283.600 92.551,283.600 93.138 M286.586 97.900 C 286.935 98.615,287.306 99.200,287.410 99.200 C 287.808 99.200,287.552 98.563,286.767 97.600 L 285.952 96.600 286.586 97.900 M288.278 100.995 C 288.644 101.762,289.014 102.319,289.101 102.232 C 289.284 102.049,288.070 99.600,287.796 99.600 C 287.695 99.600,287.912 100.228,288.278 100.995 M290.291 105.100 C 290.786 106.402,291.595 107.803,291.598 107.361 C 291.600 106.863,290.424 104.400,290.183 104.400 C 290.096 104.400,290.145 104.715,290.291 105.100 M107.886 109.217 C 107.514 110.166,107.286 111.019,107.381 111.114 C 107.624 111.358,108.846 108.338,108.691 107.874 C 108.621 107.664,108.259 108.268,107.886 109.217 M291.848 108.679 C 291.979 109.076,292.394 110.120,292.769 111.000 C 293.495 112.703,295.651 119.470,296.369 122.300 C 297.402 126.374,297.566 127.148,297.951 129.800 C 298.175 131.340,298.547 133.791,298.779 135.246 C 299.010 136.701,299.200 141.901,299.200 146.800 C 299.200 151.699,299.010 156.899,298.779 158.354 C 298.547 159.809,298.175 162.260,297.951 163.800 C 297.727 165.340,297.377 167.275,297.172 168.100 C 296.967 168.925,296.635 170.275,296.433 171.100 C 296.231 171.925,295.582 174.130,294.992 176.000 C 293.323 181.290,293.192 181.772,293.535 181.373 C 293.711 181.168,294.414 179.200,295.096 177.000 C 297.436 169.457,297.994 166.926,299.236 158.200 C 300.456 149.630,299.483 133.130,297.225 124.100 C 296.991 123.165,296.609 121.635,296.375 120.700 C 296.142 119.765,295.851 118.503,295.729 117.895 C 295.607 117.287,295.349 116.692,295.154 116.571 C 294.959 116.451,294.800 115.924,294.800 115.400 C 294.800 114.876,294.620 114.336,294.400 114.200 C 294.180 114.064,294.000 113.685,294.000 113.357 C 294.000 113.029,293.640 112.016,293.200 111.106 C 292.760 110.195,292.400 109.224,292.400 108.948 C 292.400 108.673,292.222 108.337,292.005 108.203 C 291.772 108.059,291.707 108.255,291.848 108.679 M106.600 112.400 C 106.450 112.873,106.417 113.350,106.527 113.460 C 106.637 113.570,106.850 113.273,107.000 112.800 C 107.150 112.327,107.183 111.850,107.073 111.740 C 106.963 111.630,106.750 111.927,106.600 112.400 M105.800 114.800 C 105.650 115.273,105.617 115.750,105.727 115.860 C 105.837 115.970,106.050 115.673,106.200 115.200 C 106.350 114.727,106.383 114.250,106.273 114.140 C 106.163 114.030,105.950 114.327,105.800 114.800 M105.088 116.933 C 104.642 118.066,104.715 118.645,105.238 118.122 C 105.478 117.882,105.608 117.351,105.526 116.942 C 105.382 116.226,105.366 116.226,105.088 116.933 M104.288 119.333 C 103.810 120.549,103.924 121.573,104.439 120.687 C 104.667 120.296,104.791 119.666,104.715 119.287 C 104.588 118.660,104.551 118.664,104.288 119.333 M103.400 123.200 C 103.248 123.891,103.214 124.547,103.324 124.657 C 103.434 124.767,103.648 124.291,103.800 123.600 C 103.952 122.909,103.986 122.253,103.876 122.143 C 103.766 122.033,103.552 122.509,103.400 123.200 M102.578 126.578 C 102.427 127.381,102.404 128.137,102.526 128.260 C 102.648 128.382,102.872 127.825,103.022 127.022 C 103.173 126.219,103.196 125.463,103.074 125.340 C 102.952 125.218,102.728 125.775,102.578 126.578 M101.992 129.433 C 101.988 129.635,101.719 131.780,101.396 134.200 C 100.717 139.268,100.592 153.818,101.191 157.923 C 101.406 159.395,101.689 161.471,101.821 162.537 C 101.952 163.602,102.150 164.383,102.260 164.274 C 102.370 164.164,102.176 161.755,101.830 158.921 C 101.021 152.299,101.021 141.301,101.830 134.679 C 102.176 131.845,102.356 129.423,102.230 129.296 C 102.103 129.170,101.996 129.232,101.992 129.433 M102.468 165.800 C 102.462 166.460,102.611 167.360,102.800 167.800 C 103.270 168.894,103.270 167.067,102.800 165.600 C 102.488 164.625,102.479 164.630,102.468 165.800 M103.256 169.400 C 103.256 169.840,103.411 170.560,103.600 171.000 L 103.944 171.800 103.944 171.000 C 103.944 170.560,103.789 169.840,103.600 169.400 L 103.256 168.600 103.256 169.400 M104.000 172.677 C 104.000 173.421,106.114 179.619,106.304 179.430 C 106.423 179.310,106.023 177.679,105.413 175.806 C 104.426 172.769,104.000 171.827,104.000 172.677 M106.400 180.335 C 106.400 181.368,111.521 192.425,113.806 196.325 C 122.760 211.610,135.106 224.002,150.702 233.359 L 153.204 234.860 153.196 315.130 L 153.188 395.400 154.794 395.523 C 155.677 395.591,156.400 395.475,156.400 395.266 C 156.400 394.800,154.507 394.287,153.983 394.611 C 153.742 394.759,153.565 365.234,153.501 314.567 L 153.400 234.289 150.860 232.744 C 149.463 231.895,148.240 231.200,148.142 231.200 C 147.944 231.200,142.283 227.412,141.254 226.592 C 134.739 221.393,128.258 215.340,125.205 211.599 C 124.219 210.389,123.310 209.310,123.187 209.200 C 121.962 208.107,116.008 199.421,114.003 195.800 C 112.455 193.006,109.632 187.359,109.203 186.200 C 108.749 184.974,107.946 183.078,107.553 182.305 C 107.359 181.923,107.200 181.349,107.200 181.029 C 107.200 180.709,107.020 180.336,106.800 180.200 C 106.580 180.064,106.400 180.125,106.400 180.335 M292.666 182.610 C 291.812 185.075,291.694 185.589,292.034 185.379 C 292.235 185.255,292.400 184.839,292.400 184.456 C 292.400 184.073,292.600 183.560,292.845 183.315 C 293.090 183.070,293.211 182.634,293.115 182.345 C 293.000 182.000,292.847 182.091,292.666 182.610 M290.567 187.683 C 290.164 188.628,289.697 189.715,289.530 190.100 C 289.363 190.485,289.297 190.800,289.383 190.800 C 289.680 190.800,291.707 186.374,291.503 186.170 C 291.392 186.058,290.970 186.739,290.567 187.683 M286.622 195.422 C 286.245 195.998,286.016 196.549,286.114 196.647 C 286.212 196.745,286.600 196.354,286.978 195.778 C 287.355 195.202,287.584 194.651,287.486 194.553 C 287.388 194.455,287.000 194.846,286.622 195.422 M282.869 201.549 C 277.577 209.618,270.059 217.968,262.800 223.841 C 259.761 226.299,250.285 232.793,249.712 232.809 C 249.540 232.814,248.950 233.192,248.400 233.650 C 247.003 234.813,251.697 232.261,254.101 230.552 C 255.146 229.808,256.147 229.200,256.326 229.200 C 256.504 229.200,256.998 228.883,257.425 228.495 C 257.851 228.107,259.370 226.920,260.800 225.857 C 265.886 222.076,275.281 212.791,278.677 208.189 C 281.216 204.747,282.350 203.134,284.109 200.455 C 285.173 198.835,285.972 197.438,285.885 197.351 C 285.798 197.264,284.441 199.153,282.869 201.549 M246.899 314.500 C 246.811 385.567,246.731 394.800,246.200 394.800 C 245.870 394.800,245.600 394.980,245.600 395.200 C 245.600 396.000,246.791 395.575,247.002 394.700 C 247.121 394.205,247.169 357.890,247.108 314.000 L 246.998 234.200 246.899 314.500 M157.600 395.800 C 157.600 396.200,158.000 396.400,158.800 396.400 C 160.082 396.400,160.412 395.844,159.367 395.443 C 158.295 395.031,157.600 395.172,157.600 395.800 M241.600 396.000 C 241.600 396.220,241.960 396.400,242.400 396.400 C 242.840 396.400,243.200 396.220,243.200 396.000 C 243.200 395.780,242.840 395.600,242.400 395.600 C 241.960 395.600,241.600 395.780,241.600 396.000 M161.313 396.570 C 162.068 397.325,163.740 397.424,163.503 396.700 C 163.412 396.425,162.741 396.142,162.011 396.070 C 160.803 395.952,160.740 395.997,161.313 396.570 M238.000 396.800 C 238.000 397.020,238.270 397.200,238.600 397.200 C 238.930 397.200,239.200 397.020,239.200 396.800 C 239.200 396.580,238.930 396.400,238.600 396.400 C 238.270 396.400,238.000 396.580,238.000 396.800 M164.695 397.077 C 164.307 397.178,164.093 397.427,164.219 397.630 C 164.512 398.105,168.800 398.117,168.800 397.643 C 168.800 396.904,166.549 396.593,164.695 397.077 M234.000 397.600 C 234.000 397.820,234.349 398.000,234.776 398.000 C 235.203 398.000,235.664 397.820,235.800 397.600 C 235.940 397.373,235.604 397.200,235.024 397.200 C 234.461 397.200,234.000 397.380,234.000 397.600 M170.505 397.877 C 170.893 397.978,171.107 398.227,170.981 398.430 C 170.856 398.634,171.483 398.800,172.376 398.800 C 174.013 398.800,174.538 398.292,173.367 397.843 C 173.019 397.709,172.074 397.621,171.267 397.646 C 170.460 397.672,170.117 397.776,170.505 397.877 M228.400 398.400 C 228.400 398.620,228.760 398.800,229.200 398.800 C 229.640 398.800,230.000 398.620,230.000 398.400 C 230.000 398.180,229.640 398.000,229.200 398.000 C 228.760 398.000,228.400 398.180,228.400 398.400 M175.500 398.676 C 173.789 399.123,175.068 399.600,177.976 399.600 C 180.993 399.600,182.338 399.169,180.965 398.642 C 180.259 398.371,176.579 398.394,175.500 398.676 M222.800 399.115 C 222.800 399.288,223.160 399.457,223.600 399.490 C 224.040 399.523,224.400 399.381,224.400 399.175 C 224.400 398.969,224.040 398.800,223.600 398.800 C 223.160 398.800,222.800 398.942,222.800 399.115 M184.400 399.600 C 184.730 399.813,187.070 399.969,189.600 399.947 C 195.222 399.896,193.711 399.314,187.800 399.253 C 185.085 399.225,183.993 399.337,184.400 399.600 M214.500 399.876 C 214.885 399.976,215.515 399.976,215.900 399.876 C 216.285 399.775,215.970 399.693,215.200 399.693 C 214.430 399.693,214.115 399.775,214.500 399.876 " stroke="none" fill="#2985c9" fill-rule="evenodd"></path><path id="path4" d="M153.200 111.938 L 153.400 164.600 176.500 164.605 L 199.600 164.610 176.600 164.502 L 153.600 164.394 153.600 112.020 C 153.600 83.215,153.465 59.564,153.300 59.462 C 153.135 59.360,153.090 82.974,153.200 111.938 M280.975 88.532 C 281.591 89.339,282.176 90.000,282.275 90.000 C 282.553 90.000,280.821 87.660,280.309 87.344 C 280.059 87.189,280.359 87.724,280.975 88.532 M283.795 92.648 C 284.173 93.225,285.102 94.755,285.860 96.048 C 286.618 97.342,287.334 98.400,287.452 98.400 C 287.569 98.400,287.264 97.725,286.774 96.900 C 284.813 93.601,283.506 91.600,283.312 91.600 C 283.200 91.600,283.417 92.072,283.795 92.648 M288.873 101.475 C 289.579 103.135,290.094 103.588,289.571 102.090 C 289.324 101.380,288.958 100.697,288.758 100.574 C 288.558 100.450,288.609 100.856,288.873 101.475 M299.082 134.821 C 299.208 135.799,299.375 136.675,299.455 136.767 C 299.781 137.142,299.560 134.155,299.221 133.621 C 298.984 133.246,298.935 133.670,299.082 134.821 M299.693 143.600 C 299.693 144.370,299.775 144.685,299.876 144.300 C 299.976 143.915,299.976 143.285,299.876 142.900 C 299.775 142.515,299.693 142.830,299.693 143.600 M100.548 146.800 C 100.548 149.110,100.614 150.055,100.695 148.900 C 100.776 147.745,100.776 145.855,100.695 144.700 C 100.614 143.545,100.548 144.490,100.548 146.800 M300.109 146.800 C 300.109 147.790,300.187 148.195,300.282 147.700 C 300.378 147.205,300.378 146.395,300.282 145.900 C 300.187 145.405,300.109 145.810,300.109 146.800 M299.693 150.000 C 299.693 150.770,299.775 151.085,299.876 150.700 C 299.976 150.315,299.976 149.685,299.876 149.300 C 299.775 148.915,299.693 149.230,299.693 150.000 M246.400 158.397 L 246.400 163.994 223.100 164.100 L 199.800 164.207 223.300 164.303 L 246.800 164.400 246.800 158.600 C 246.800 155.410,246.710 152.800,246.600 152.800 C 246.490 152.800,246.400 155.319,246.400 158.397 M299.264 157.867 C 299.229 158.564,299.096 159.464,298.970 159.867 C 298.753 160.559,298.765 160.560,299.194 159.891 C 299.445 159.502,299.577 158.602,299.489 157.891 L 299.328 156.600 299.264 157.867 M298.446 163.267 C 298.421 163.634,298.296 164.264,298.170 164.667 C 297.952 165.362,297.963 165.363,298.397 164.687 C 298.648 164.296,298.773 163.666,298.673 163.287 C 298.511 162.668,298.488 162.666,298.446 163.267 M286.614 196.235 C 286.241 196.804,286.005 197.338,286.089 197.422 C 286.173 197.507,286.558 197.041,286.944 196.388 C 287.806 194.928,287.548 194.809,286.614 196.235 M284.564 199.729 C 284.109 200.428,283.415 201.495,283.022 202.100 C 282.629 202.705,282.393 203.200,282.497 203.200 C 282.766 203.200,285.686 198.753,285.524 198.591 C 285.451 198.517,285.018 199.029,284.564 199.729 M280.637 205.400 C 280.276 205.950,280.137 206.400,280.327 206.400 C 280.516 206.400,280.877 205.950,281.127 205.400 C 281.378 204.850,281.517 204.400,281.437 204.400 C 281.357 204.400,280.997 204.850,280.637 205.400 M270.392 217.500 L 266.600 221.400 270.500 217.608 C 274.122 214.086,274.582 213.600,274.292 213.600 C 274.233 213.600,272.478 215.355,270.392 217.500 M147.200 231.564 C 147.750 232.014,148.380 232.383,148.600 232.385 C 149.028 232.388,148.305 231.834,147.000 231.160 C 146.469 230.885,146.536 231.021,147.200 231.564 M248.400 234.000 C 247.630 234.422,247.144 234.774,247.320 234.783 C 247.744 234.805,250.000 233.632,250.000 233.390 C 250.000 233.128,249.977 233.137,248.400 234.000 M152.795 237.318 L 152.991 240.200 153.116 237.641 C 153.185 236.233,153.097 234.936,152.921 234.759 C 152.744 234.581,152.688 235.733,152.795 237.318 " stroke="none" fill="#249cd4" fill-rule="evenodd"></path></g></svg>