<?xml version="1.0" standalone="no"?>
<!DOCTYPE svg PUBLIC "-//W3C//DTD SVG 20010904//EN"
 "http://www.w3.org/TR/2001/REC-SVG-20010904/DTD/svg10.dtd">
<svg version="1.0" xmlns="http://www.w3.org/2000/svg"
 width="512.000000pt" height="512.000000pt" viewBox="0 0 512.000000 512.000000"
 preserveAspectRatio="xMidYMid meet">
<metadata>
Created by potrace 1.14, written by Peter Selinger 2001-2017
</metadata>
<g transform="translate(0.000000,512.000000) scale(0.100000,-0.100000)"
fill="#000000" stroke="none">
<path d="M3160 3686 l0 -676 -600 0 -600 0 0 670 c0 409 -4 670 -9 670 -26 0
-203 -132 -280 -209 -148 -147 -256 -323 -319 -521 -44 -139 -56 -227 -56
-390 2 -259 64 -461 211 -690 76 -117 250 -288 371 -364 l92 -59 0 -1022 0
-1023 112 -21 c177 -33 288 -42 503 -43 196 -1 351 15 523 52 l52 12 0 1022 0
1022 93 61 c530 347 726 1036 457 1601 -68 142 -129 231 -234 340 -90 93 -179
165 -268 217 l-48 27 0 -676z"/>
</g>
</svg>
